<svg xmlns="http://www.w3.org/2000/svg" viewBox="0 0 259.59 94.13"><defs><style>.cls-1,.cls-2{fill:#dea505;}.cls-1,.cls-4{fill-rule:evenodd;}.cls-3,.cls-4{fill:#366a5d;}</style></defs><g id="Layer_2" data-name="Layer 2"><g id="Layer_1-2" data-name="Layer 1"><path class="cls-1" d="M37.66,0,40,6.69l7.09.17-5.64,4.29,2,6.79-5.84-4-5.83,4,2-6.79L28.23,6.86l7.09-.17Z"/><path class="cls-2" d="M52.38,39.35v0l-.8-.46a19.85,19.85,0,0,0-10.21-3,17.17,17.17,0,0,0-5.6.88l-5.89,1.88c-6.15,1.92-12,.19-17.41-2.53C10,34.86,7.63,33.43,5.32,32L3.2,30.77l.17,9.75,2,1.17a76.61,76.61,0,0,0,7.16,3.88c5.81,2.69,11.72,4,18.78,1.82,6.67-3.24,10.75-2.72,16.4-.15L27.31,87.93l1.59.92L53.22,39.79Z"/><path class="cls-3" d="M12.48,31.33v-.15a23.68,23.68,0,0,0,7.81,1.65,23.21,23.21,0,0,0,6.87-.71l6.55-1.85a19,19,0,0,1,6.23-.72,23,23,0,0,1,12,4.19l3.2-7c-3.94-3.85-9.68-4.93-15.19-5.16a29.3,29.3,0,0,0-8.62,1l-6.4,1.69a14.48,14.48,0,0,1-4.63.63,15.71,15.71,0,0,1-6.61-1.73l-1.3-.63v-.61l-.85-5.25c6.58-1,12.89-1.67,19.11-2,1.23-4.24-1.81-4.68-5.12-7.23A244.15,244.15,0,0,0,0,10.08c-.09,8.35-.17,6,5.32,10.8a5.62,5.62,0,0,0,0,.58V32c2.31,1.39,4.7,2.82,7.16,4.05Z"/><path class="cls-3" d="M5.32,52.91,4.85,64.45a16.07,16.07,0,0,0,7.74,13.73l13,7.51,17.09-33.6a12.25,12.25,0,0,0-6.86-2,11.78,11.78,0,0,0-4,.73l-6.42,2a12.5,12.5,0,0,1-3.94.73,12.81,12.81,0,0,1-9.06-3.8V45.06a78.11,78.11,0,0,1-7.16-3.82Zm7.16,5.76a21.32,21.32,0,0,0,9.06,2,20.69,20.69,0,0,0,10.22-2.78L22.7,75.46l-6.31-3.4A8.93,8.93,0,0,1,12,64.45Z"/><path class="cls-3" d="M75.33,10.15A240.77,240.77,0,0,0,49.81,7.46c-3.34,2.58-6.47,3-4.91,7.19a149.38,149.38,0,0,1,19,2.12l-1.08,7.35,0,3.69L31,90l6.58,4.14L64.06,79A16.17,16.17,0,0,0,71.8,65.12,426.5,426.5,0,0,1,70,21.46c0-.17,0-.34,0-.51C75.44,16.15,75.33,18.36,75.33,10.15ZM60.26,72.82l-17.4,9.77L62.73,42.92l1.77,22.2A8.91,8.91,0,0,1,60.26,72.82Z"/><path class="cls-4" d="M100,12.13H94.26V9h15.38v3.18h-5.91l0,14.65H99.92Zm15.1,8.33v6.32H111.5l0-16.63h8.12c2.33,0,4,.29,4.88.89a4,4,0,0,1,1.52,1.7,4.4,4.4,0,0,1,.45,2c0,2.52-1.07,4.13-3.19,4.86a4.77,4.77,0,0,1,1.6.83,5.52,5.52,0,0,1,1.41,3.81,11.34,11.34,0,0,0,.4,2.51h-4a13.69,13.69,0,0,1-.36-2.36,10.44,10.44,0,0,0-.25-1.51,3.9,3.9,0,0,0-.44-1,3.08,3.08,0,0,0-2.07-1.32,10.35,10.35,0,0,0-1.73-.13Zm0-3h5a3.11,3.11,0,0,0,1.76-.37,2.2,2.2,0,0,0,.8-1.93,1.84,1.84,0,0,0-1.19-1.95,4.86,4.86,0,0,0-1.37-.14h-5Zm14.35,9.28,0-16.63H133l0,16.63Zm7,0,0-16.63h9.42a7.81,7.81,0,0,1,3.22.49,3.85,3.85,0,0,1,1.76,1.94,4.48,4.48,0,0,1,.42,1.93,4.55,4.55,0,0,1-1.15,3,3.53,3.53,0,0,1-1.28.93,4,4,0,0,1,2.4,3.92,4.63,4.63,0,0,1-.78,2.73,3.91,3.91,0,0,1-2.86,1.57,18.35,18.35,0,0,1-2,.09ZM140,17h4.82a4.15,4.15,0,0,0,1.31-.14,1.93,1.93,0,0,0,.95-.79,2.34,2.34,0,0,0,.3-1.14,1.65,1.65,0,0,0-.73-1.47,3.3,3.3,0,0,0-1.74-.34H140Zm0,6.83h4.82a4.21,4.21,0,0,0,1.3-.13,1.88,1.88,0,0,0,.94-.8,2.11,2.11,0,0,0,.31-1.13,1.62,1.62,0,0,0-.73-1.47,3.26,3.26,0,0,0-1.73-.34H140Zm17.33-13.67,0,10a7,7,0,0,0,.17,1.81,2.69,2.69,0,0,0,1.51,1.74,4.69,4.69,0,0,0,2.1.47,5,5,0,0,0,2.08-.41,2.43,2.43,0,0,0,1.23-1.09,6.11,6.11,0,0,0,.36-2.52l0-10h3.54l0,9.79a11.56,11.56,0,0,1-.39,3.11,4.79,4.79,0,0,1-2.94,3.17,9.8,9.8,0,0,1-3.95.7c-2.57,0-4.44-.57-5.63-1.69a4.89,4.89,0,0,1-1.4-2.43,11.41,11.41,0,0,1-.22-2.6l0-10Zm17.63,4.43,0,12.2h-3.38l0-16.63h4.53l6.59,12.39,0-12.39h3.38l0,16.63h-4.37Zm12.85,12.2,6.92-16.63h4.08l6.85,16.63h-4.15l-1.6-3.85h-6.33l-1.61,3.85Zm9-12.64L194.33,20h4.74Zm10.81,12.64,0-16.66h4.42L212,23h7.15l0,3.81Zm21.39-16.63H236a12.52,12.52,0,0,1,4.1.52,5.51,5.51,0,0,1,3.55,3.56,12.9,12.9,0,0,1,.68,4.26,13.46,13.46,0,0,1-.66,4.25,5.33,5.33,0,0,1-2.16,3,6.64,6.64,0,0,1-3.24,1c-.65,0-1.42.06-2.3.06h-7.06Zm3.71,3,0,10.71h3.53a4.07,4.07,0,0,0,3.21-1,4.59,4.59,0,0,0,.89-1.8,9.28,9.28,0,0,0,.34-2.51,8.22,8.22,0,0,0-.66-3.42,3.1,3.1,0,0,0-1.75-1.68,6.32,6.32,0,0,0-2-.26ZM247,26.78l0-17h12.35v3.31h-8.33v3.16h7.47v3.17h-7.48l0,4.09h8.53v3.3Z"/><path class="cls-4" d="M108.74,46.1v3.19h-6.25a16.57,16.57,0,0,1-2.73-.18,6.2,6.2,0,0,1-4.68-3.7,12.28,12.28,0,0,1-.91-5,11.12,11.12,0,0,1,1.42-5.88A5.86,5.86,0,0,1,98.47,32a11.75,11.75,0,0,1,4.23-.65h6.07v3.19h-5.64a4.74,4.74,0,0,0-3.75,1.37c-.66.75-1,2.11-1,4.09,0,2.64.5,4.39,1.53,5.22a5.28,5.28,0,0,0,3.34.87Zm10.11-13.65a10.46,10.46,0,0,1,4.33.86,5.81,5.81,0,0,1,3.12,3.41,12.44,12.44,0,0,1,.71,4.37,10.78,10.78,0,0,1-.88,4.5,6.13,6.13,0,0,1-2.68,2.85,9.39,9.39,0,0,1-4.46.94,10.8,10.8,0,0,1-4.91-1.05,6.16,6.16,0,0,1-3-3.6,10.81,10.81,0,0,1-.56-3.73c0-3.18.8-5.45,2.39-6.8a8.94,8.94,0,0,1,6-1.75Zm-.12,2.82a3.87,3.87,0,0,0-3.48,1.61,7.57,7.57,0,0,0-.84,4,7.2,7.2,0,0,0,1,4.32,3.91,3.91,0,0,0,3.32,1.35,3.71,3.71,0,0,0,3.54-1.81,8,8,0,0,0,.77-3.91,7.51,7.51,0,0,0-.83-3.93,3.79,3.79,0,0,0-3.52-1.65ZM133,37l0,12.27h-3.4l0-16.73h4.55L140.79,45l0-12.46h3.39l0,16.73h-4.39Zm18.43-1.48h-5.33v-3h14.42v3H155l0,13.75h-3.56Zm7.23,13.75,7-16.73h4.1l6.89,16.73h-4.18l-1.61-3.88h-6.36l-1.62,3.88Zm9-12.71-2.41,5.85H170ZM178.4,49.29v-3h7.64a5.45,5.45,0,0,0,2.45-.37,1.72,1.72,0,0,0,.89-1.58,1.89,1.89,0,0,0-1-1.78,4.13,4.13,0,0,0-1.87-.32h-3.11a6.44,6.44,0,0,1-4.09-1A4.34,4.34,0,0,1,178,39.52a4.92,4.92,0,0,1-.4-2,5.49,5.49,0,0,1,1-3.22,4.28,4.28,0,0,1,3.23-1.64,20.85,20.85,0,0,1,2.23-.08h8.3v3h-7.49a12,12,0,0,0-2.23.15,1.52,1.52,0,0,0-1.13,1.7,1.58,1.58,0,0,0,.94,1.61,5.45,5.45,0,0,0,2.11.28h2.68a9.53,9.53,0,0,1,3.08.37,3.85,3.85,0,0,1,2.44,2.1,6.49,6.49,0,0,1,.52,2.6,5.34,5.34,0,0,1-.7,2.73,4,4,0,0,1-3,2.05,19.8,19.8,0,0,1-2.87.16Zm23.87-16.73h7.1a13,13,0,0,1,4.12.52,5.56,5.56,0,0,1,3.57,3.59,13,13,0,0,1,.68,4.29,13.63,13.63,0,0,1-.66,4.27,5.33,5.33,0,0,1-2.18,3,6.51,6.51,0,0,1-3.25,1c-.65.05-1.42.07-2.32.07h-7.09Zm3.56,3,0,10.77h3.54a4.11,4.11,0,0,0,3.24-1,4.68,4.68,0,0,0,.89-1.82,9,9,0,0,0,.34-2.52,8.11,8.11,0,0,0-.66-3.43,3.1,3.1,0,0,0-1.76-1.69,6,6,0,0,0-2-.27Zm21.94-3.09a10.44,10.44,0,0,1,4.32.86,5.83,5.83,0,0,1,3.13,3.41,12.22,12.22,0,0,1,.7,4.37,10.78,10.78,0,0,1-.87,4.5,6.2,6.2,0,0,1-2.69,2.85,9.39,9.39,0,0,1-4.46.94A10.83,10.83,0,0,1,223,48.33a6.15,6.15,0,0,1-3-3.6A10.79,10.79,0,0,1,219.4,41c0-3.18.8-5.45,2.39-6.8a9,9,0,0,1,6-1.75Zm-.12,2.82a3.89,3.89,0,0,0-3.49,1.61,7.57,7.57,0,0,0-.84,4,7.27,7.27,0,0,0,1,4.32,3.93,3.93,0,0,0,3.33,1.35,3.72,3.72,0,0,0,3.54-1.81,8.14,8.14,0,0,0,.77-3.91,7.5,7.5,0,0,0-.84-3.93,3.77,3.77,0,0,0-3.51-1.65Z"/><path class="cls-4" d="M94.16,71.9l0-18h13.1v3.48H98.46v3.34h7.93v3.35H98.44v4.29h9.62V71.9Zm16.28,0v-3h7.73a5.4,5.4,0,0,0,2.48-.38,1.72,1.72,0,0,0,.9-1.59,1.89,1.89,0,0,0-1-1.79,4.25,4.25,0,0,0-1.9-.32h-3.13a6.6,6.6,0,0,1-4.15-1,4.34,4.34,0,0,1-1.26-1.73,5,5,0,0,1-.41-2,5.45,5.45,0,0,1,1-3.24A4.27,4.27,0,0,1,114,55.15c.5,0,1.26-.08,2.25-.08h8.4v3h-7.58a13.64,13.64,0,0,0-2.26.14,1.55,1.55,0,0,0-1.15,1.72,1.61,1.61,0,0,0,1,1.63,5.74,5.74,0,0,0,2.13.28h2.71a10.46,10.46,0,0,1,3.12.35A3.93,3.93,0,0,1,125,64.32a6.35,6.35,0,0,1,.53,2.61,5.38,5.38,0,0,1-.7,2.75,4.09,4.09,0,0,1-3,2.06,20.24,20.24,0,0,1-2.91.16Zm21.42-13.83h-5.4v-3h14.6v3h-5.6l0,13.83h-3.6Zm7.31,13.83,7.05-16.83h4.14l7,16.83h-4.23L151.48,68H145l-1.65,3.9Zm9.12-12.78L145.86,65h4.82Zm11-4h7.19a12.91,12.91,0,0,1,4.17.53,5.65,5.65,0,0,1,3.62,3.6,13.49,13.49,0,0,1,.68,4.32,14.08,14.08,0,0,1-.67,4.3,5.4,5.4,0,0,1-2.2,3.05,6.7,6.7,0,0,1-3.29,1c-.67,0-1.44.07-2.34.07h-7.19Zm3.6,3,0,10.84h3.58a4.15,4.15,0,0,0,3.27-1.06,4.69,4.69,0,0,0,.91-1.82,9.1,9.1,0,0,0,.35-2.53,8.37,8.37,0,0,0-.67-3.46,3.14,3.14,0,0,0-1.79-1.7,6.16,6.16,0,0,0-2-.27ZM185.06,55a10.49,10.49,0,0,1,4.37.87,5.87,5.87,0,0,1,3.17,3.43,12.11,12.11,0,0,1,.71,4.39,10.53,10.53,0,0,1-.89,4.52A6.05,6.05,0,0,1,189.71,71a9.49,9.49,0,0,1-4.52,1,11.09,11.09,0,0,1-5-1.06,6.2,6.2,0,0,1-3.05-3.62,11,11,0,0,1-.58-3.76c0-3.19.81-5.48,2.42-6.84A9.13,9.13,0,0,1,185.06,55Zm-.12,2.84a3.93,3.93,0,0,0-3.53,1.62,7.41,7.41,0,0,0-.85,4,7.07,7.07,0,0,0,1.06,4.35A4,4,0,0,0,185,69.17a3.78,3.78,0,0,0,3.58-1.82,8.14,8.14,0,0,0,.78-3.94,7.45,7.45,0,0,0-.85-3.95,3.81,3.81,0,0,0-3.55-1.66Z"/><path class="cls-1" d="M95.87,82.25v2.87H94.26V77.55H98a4.23,4.23,0,0,1,2.22.41,1.86,1.86,0,0,1,.7.77,2.21,2.21,0,0,1,.2.92,2.1,2.1,0,0,1-1.44,2.22,2,2,0,0,1,.72.38A2.49,2.49,0,0,1,101,84a4.57,4.57,0,0,0,.19,1.14H99.39a5.56,5.56,0,0,1-.17-1.07,4,4,0,0,0-.12-.69,2,2,0,0,0-.19-.46,1.44,1.44,0,0,0-1-.6,4.44,4.44,0,0,0-.78,0Zm0-1.35h2.27a1.46,1.46,0,0,0,.8-.17,1,1,0,0,0,.36-.88.85.85,0,0,0-.54-.89,2.27,2.27,0,0,0-.62-.06H95.87Zm6.51,4.22V77.55H104v7.57Zm6.53-7.62a4.73,4.73,0,0,1,2,.39,2.6,2.6,0,0,1,1.42,1.55,5.39,5.39,0,0,1,.32,2,4.85,4.85,0,0,1-.39,2A2.81,2.81,0,0,1,111,84.74a4.32,4.32,0,0,1-2,.43,4.84,4.84,0,0,1-2.22-.48,2.79,2.79,0,0,1-1.38-1.63,5.09,5.09,0,0,1-.26-1.69,3.89,3.89,0,0,1,1.08-3.09,4.16,4.16,0,0,1,2.7-.78Zm0,1.28a1.74,1.74,0,0,0-1.57.72,3.38,3.38,0,0,0-.38,1.82,3.31,3.31,0,0,0,.47,2,1.79,1.79,0,0,0,1.51.62,1.68,1.68,0,0,0,1.6-.83,3.62,3.62,0,0,0,.35-1.77,3.38,3.38,0,0,0-.39-1.78,1.71,1.71,0,0,0-1.59-.74Zm10.51,1.84h3.72v4.5h-3.38a4.92,4.92,0,0,1-1.63-.21,2.29,2.29,0,0,1-1.23-.93,4.7,4.7,0,0,1-.67-2.61,4.85,4.85,0,0,1,.57-2.45,2.43,2.43,0,0,1,1.56-1.19,5.61,5.61,0,0,1,1.48-.18h3.3V78.9H120a2.07,2.07,0,0,0-1.47.44,2.56,2.56,0,0,0-.54,1.87,4.53,4.53,0,0,0,.26,1.63,1.32,1.32,0,0,0,.7.76,2.79,2.79,0,0,0,1.11.18h1.46V82h-2.12Zm6.69,1.63v2.87h-1.61V77.55h3.69a4.28,4.28,0,0,1,2.23.41,1.77,1.77,0,0,1,.69.77,2.07,2.07,0,0,1,.21.92,2.09,2.09,0,0,1-1.45,2.22,2,2,0,0,1,.73.38A2.49,2.49,0,0,1,131.2,84a4.69,4.69,0,0,0,.18,1.14h-1.81a6.89,6.89,0,0,1-.16-1.07,5.57,5.57,0,0,0-.11-.69,2.72,2.72,0,0,0-.21-.46,1.44,1.44,0,0,0-1-.6,4.3,4.3,0,0,0-.78,0Zm0-1.35h2.26a1.48,1.48,0,0,0,.81-.17,1,1,0,0,0,.36-.88A.85.85,0,0,0,129,79a2.36,2.36,0,0,0-.63-.06h-2.26Zm5.78,4.22L135,77.55h1.87L140,85.12h-1.89l-.74-1.75h-2.87l-.73,1.75Zm4.07-5.75L134.82,82H137Zm6.41.19v5.56h-1.54V77.55h2.07l3,5.65V77.55h1.54v7.57h-2Zm6.63-2h3.21a5.73,5.73,0,0,1,1.87.24,2.52,2.52,0,0,1,1.62,1.62,6.11,6.11,0,0,1,.3,1.94,6.2,6.2,0,0,1-.29,1.94,2.45,2.45,0,0,1-1,1.37,3.1,3.1,0,0,1-1.47.43c-.3,0-.64,0-1.05,0H149Zm1.6,1.35v4.88h1.61a1.87,1.87,0,0,0,1.47-.48,2.16,2.16,0,0,0,.4-.82,4.68,4.68,0,0,0,.15-1.14,3.73,3.73,0,0,0-.3-1.55,1.39,1.39,0,0,0-.81-.77,2.78,2.78,0,0,0-.91-.12Zm6.51,6.22v-7.6h5.52V79h-3.72v1.4h3.33v1.43h-3.33v1.81h4v1.48Zm10.11-7.57h3.22a5.66,5.66,0,0,1,1.86.24,2.52,2.52,0,0,1,1.62,1.62,5.85,5.85,0,0,1,.31,1.94,6.5,6.5,0,0,1-.29,1.94,2.5,2.5,0,0,1-1,1.37,3.1,3.1,0,0,1-1.48.43c-.3,0-.64,0-1,0h-3.22Zm1.61,1.35v4.88h1.61a1.84,1.84,0,0,0,1.46-.48,2,2,0,0,0,.4-.82,4.24,4.24,0,0,0,.16-1.14,3.73,3.73,0,0,0-.31-1.55,1.4,1.4,0,0,0-.8-.77,2.78,2.78,0,0,0-.91-.12Zm9.91-1.4a4.73,4.73,0,0,1,2,.39,2.61,2.61,0,0,1,1.41,1.55,5.38,5.38,0,0,1,.33,2,4.85,4.85,0,0,1-.4,2,2.71,2.71,0,0,1-1.21,1.29,4.29,4.29,0,0,1-2,.43,4.87,4.87,0,0,1-2.22-.48,2.78,2.78,0,0,1-1.37-1.63,4.84,4.84,0,0,1-.26-1.69A3.92,3.92,0,0,1,176,78.28a4.17,4.17,0,0,1,2.71-.78Zm-.06,1.28a1.75,1.75,0,0,0-1.57.72,3.38,3.38,0,0,0-.38,1.82,3.23,3.23,0,0,0,.48,2,1.77,1.77,0,0,0,1.5.62,1.7,1.7,0,0,0,1.61-.83,3.63,3.63,0,0,0,.34-1.77,3.49,3.49,0,0,0-.38-1.78,1.73,1.73,0,0,0-1.6-.74Zm9.28.78v5.56h-1.54V77.55h2.07l3,5.65V77.55H193v7.57h-2Zm10-2.06a4.65,4.65,0,0,1,2,.39,2.54,2.54,0,0,1,1.42,1.55,5.38,5.38,0,0,1,.33,2,4.7,4.7,0,0,1-.4,2A2.71,2.71,0,0,1,200,84.74a4.27,4.27,0,0,1-2,.43,4.86,4.86,0,0,1-2.23-.48,2.78,2.78,0,0,1-1.37-1.63,4.84,4.84,0,0,1-.26-1.69,3.92,3.92,0,0,1,1.07-3.09,4.19,4.19,0,0,1,2.71-.78Zm0,1.28a1.77,1.77,0,0,0-1.58.72,3.39,3.39,0,0,0-.37,1.82,3.24,3.24,0,0,0,.47,2,1.78,1.78,0,0,0,1.51.62,1.68,1.68,0,0,0,1.6-.83,3.73,3.73,0,0,0,.35-1.77,3.38,3.38,0,0,0-.39-1.78,1.71,1.71,0,0,0-1.59-.74Zm6.5,3.47v2.87h-1.61V77.55h3.7a4.26,4.26,0,0,1,2.22.41,1.77,1.77,0,0,1,.69.77,2.07,2.07,0,0,1,.21.92,2.09,2.09,0,0,1-1.45,2.22,2,2,0,0,1,.73.38,2.49,2.49,0,0,1,.65,1.73,4.69,4.69,0,0,0,.18,1.14h-1.81a6.89,6.89,0,0,1-.16-1.07c0-.29-.07-.52-.11-.69a2.11,2.11,0,0,0-.21-.46,1.44,1.44,0,0,0-.94-.6,4.49,4.49,0,0,0-.79,0Zm0-1.35h2.26a1.39,1.39,0,0,0,.8-.17,1,1,0,0,0,.37-.88.85.85,0,0,0-.54-.89,2.36,2.36,0,0,0-.63-.06h-2.26Zm8.21-2h-2.42V77.55h6.53V78.9h-2.5v6.22h-1.61Zm4.91,6.22V77.53H223V79h-3.71v1.4h3.34v1.42h-3.34v1.82h4v1.47Z"/></g></g></svg>